<?xml version="1.0" encoding="UTF-8"?>
<svg id="Layer_1" data-name="Layer 1" xmlns="http://www.w3.org/2000/svg" viewBox="0 0 399.67 405.23">
  <defs>
    <style>
      .cls-1 {
        fill: #fff;
        font-family: Pacifico-Regular, Pacifico;
        font-size: 24.77px;
      }

      .cls-2 {
        fill: #e11b4c;
        stroke: #000;
        stroke-miterlimit: 10;
      }
    </style>
  </defs>
  <path class="cls-2" d="m213.26,110.61c38.23,6.67,62.43-91.53,106.72-89.92,45.52,1.66,100.71,108.34,70.59,172.27-21.03,44.64-67.02,33.14-109.24,89.92-42.28,56.85-36.33,122.38-47.9,121.85-11.27-.52.85-61.86-34.45-115.13-35.56-53.65-79.97-39.87-133.61-94.12C23.81,153.46-18.88,75.08,9.9,32.46,33.67-2.72,103.8-10.07,145.2,16.49c45.84,29.42,38.61,88.98,68.07,94.12Z"/>
  <text class="cls-1" transform="translate(33.64 149.25)"><tspan x="0" y="0">HAPPY VALENTINES DAY</tspan></text>
</svg>